<?xml version="1.0" encoding="iso-8859-1"?>
<!-- Uploaded to: SVG Repo, www.svgrepo.com, Generator: SVG Repo Mixer Tools -->
<!DOCTYPE svg PUBLIC "-//W3C//DTD SVG 1.1//EN" "http://www.w3.org/Graphics/SVG/1.1/DTD/svg11.dtd">
<svg fill="#000000" version="1.1" id="Capa_1" xmlns="http://www.w3.org/2000/svg" xmlns:xlink="http://www.w3.org/1999/xlink" 
	 width="800px" height="800px" viewBox="0 0 85.244 85.244"
	 xml:space="preserve">
<g>
	<path d="M77.152,4.071L66.767,20.7c-0.356,0.573-0.903,0.962-1.503,1.139L31.935,77.712l-4.229,6.297c0,0-11.14,3.616-16.283-1.526
		c-5.476-5.475-6.399-16.16,7.441-11.228c0.211,0.076,0.431,0.156,0.654,0.242c0,0,6.614,2.932,8.771,4.584l33.597-56.41
		c-0.089-0.602,0.016-1.235,0.364-1.792L72.64,1.251c0.778-1.247,2.421-1.624,3.666-0.847C77.551,1.181,77.932,2.824,77.152,4.071z"
		/>
</g>
</svg>